<svg width="17" height="17" stroke="#FFFFFF" xmlns="http://www.w3.org/2000/svg"><path d="M1.4 2.5a1.1 1.1 0 112.2 0 1.1 1.1 0 01-2.2 0zM1.4 7.5a1.1 1.1 0 112.2 0 1.1 1.1 0 01-2.2 0zM1.4 12.5a1.1 1.1 0 112.2 0 1.1 1.1 0 01-2.2 0z" stroke="#fff" stroke-width="1.2"></path><path d="M13.1 2.5a.6.6 0 00-.6-.6H6a.6.6 0 000 1.2h6.5a.6.6 0 00.6-.6zM13.1 7.5a.6.6 0 00-.6-.6H6a.6.6 0 000 1.2h6.5a.6.6 0 00.6-.6zM13.1 12.5a.6.6 0 00-.6-.6H6a.6.6 0 100 1.2h6.5a.6.6 0 00.6-.6z" fill="#fff" stroke="#fff" stroke-width=".2"></path></svg>